<svg width="192" height="192" viewBox="0 0 192 192" fill="none" xmlns="http://www.w3.org/2000/svg">
<rect width="192" height="192" fill="#E5E5E5"/>
<g clip-path="url(#clip0)">
<g filter="url(#filter0_d)">
<circle cx="96" cy="96" r="86" stroke="white" stroke-width="20"/>
</g>
<path d="M9.408 125.514L0 106.122V114.859L1.728 117.416L4.8 128.497L9.408 138.726L12.672 145.758L14.016 139.578L13.248 134.038L9.408 125.514Z" fill="url(#paint0_linear)" stroke="black"/>
<path d="M0 178.788L4.8 174.526L16.416 192H28.032L31.104 185.394L29.568 177.083L19.776 165.789L14.016 166.642L7.872 172.182L0 158.544V178.788Z" fill="url(#paint1_linear)" stroke="black"/>
<path d="M42.432 113.154L43.2 107.827L38.784 109.532L33.408 113.794L27.648 116.138L20.544 118.269H16.704H9.408L5.568 107.827L0 98.6637V106.122L9.408 125.514L13.248 134.038L14.016 139.578L12.672 145.758L9.408 138.726L4.8 128.497L1.728 117.416L0 114.859V132.333L9.408 150.872L14.016 157.691L18.432 161.74L19.776 165.789L29.568 177.083L31.104 185.394L28.032 192L37.152 190.189L44.64 178.788L47.232 169.199L43.2 161.101L37.056 148.954L38.784 143.84L40.32 135.103L41.088 125.514L41.856 119.334L42.432 113.154Z" fill="url(#paint2_linear)" stroke="black"/>
<path fill-rule="evenodd" clip-rule="evenodd" d="M62.4 124.875L57.408 119.334L66.048 124.022L72.576 127.645H78.528L83.52 125.87L84.48 126.199L86.2138 126.792L80.256 135.103L75.264 145.758L69.888 158.544L68.16 161.101L69.12 172.182V184.251L56.064 186.886L52.224 188.377L50.016 190.189L46.272 188.377L37.152 190.189L44.64 178.788L47.232 169.199L43.2 161.101L37.056 148.954L38.784 143.84L40.32 135.103L40.704 130.309L41.088 125.514L41.856 119.334L42.432 113.154L43.2 107.827L42.432 101.86V94.1887L44.64 85.505L46.08 87.5827L44.736 109.532L43.2 117.416V123.17L47.232 119.334L51.264 118.269L54.336 119.334L57.216 121.839L60.48 124.679L61.44 125.514L67.584 128.497L62.4 124.875ZM16.416 192H4.8L4.224 184.329L4.8 174.526L16.416 192ZM0 158.544V132.333L9.408 150.872L14.016 157.691L18.432 161.74L19.776 165.789L14.016 166.642L7.872 172.182L0 158.544ZM82.56 68.6171L82.802 68.8589C82.7713 68.0308 82.56 68.6171 82.56 68.6171Z" fill="url(#paint3_linear)" stroke="black"/>
<path d="M43.2 83.4273L37.056 86.091H32.064L25.536 90.1398L16.704 92.697L9.408 94.828L0 98.6637L5.568 107.827L9.408 118.269H16.704H20.544L24.096 117.203L27.648 116.138L33.408 113.794L38.784 109.532L43.2 107.827L42.432 101.86V94.1887L44.64 85.505L43.2 83.4273Z" fill="url(#paint4_linear)"/>
<path d="M16.704 92.697L25.536 90.1398L32.064 86.091H37.056L43.2 83.4273L44.64 85.505L42.432 94.1887V101.86L43.2 107.827M16.704 92.697L9.408 94.828L0 98.6637L5.568 107.827L9.408 118.269H16.704H20.544L24.096 117.203M16.704 92.697L13.632 97.3851L14.4 98.6637L16.704 99.303L17.664 101.221L21.312 98.6637L20.736 108.04V111.876L21.312 114.433L24.096 117.203M43.2 107.827L38.784 109.532L33.408 113.794L27.648 116.138L24.096 117.203M43.2 107.827L42.432 113.154L41.856 119.334L41.088 125.514L40.704 130.309L40.128 135.742L35.136 128.71L32.064 126.579L27.648 123.383L25.536 121.039L24.096 117.203" stroke="black"/>
<path d="M47.232 91.2053L46.08 87.5827L44.736 109.532L43.2 117.416V123.17L47.232 119.334L51.264 118.269L54.336 119.334L57.216 121.839L60.48 124.679L61.44 125.514L67.584 128.497L62.4 124.875L57.408 119.334L52.992 109.958L49.536 98.6637L48.864 93.0166L47.232 91.2053Z" fill="url(#paint5_linear)" stroke="black"/>
<path d="M87.168 127.645L86.208 127.219L80.256 135.103L75.264 145.758L69.888 158.544L68.16 161.101L69.12 172.182V184.251L69.888 184.096V175.592L70.656 164.511L73.728 152.577L80.256 140.857L87.87 135.103L89.28 134.038L91.9248 131.267L96.768 126.153L87.168 127.645Z" fill="#3F4E61" stroke="black"/>
<path d="M50.016 190.189L53.76 192H76.608L77.184 182.624L69.888 184.096L69.12 184.251L56.064 186.886L52.224 188.377L50.016 190.189Z" fill="url(#paint6_linear)"/>
<path d="M28.032 192H53.76L50.016 190.189L46.272 188.377L37.152 190.189L28.032 192Z" fill="url(#paint7_linear)"/>
<path d="M53.76 192H28.032L37.152 190.189L46.272 188.377L50.016 190.189M53.76 192L50.016 190.189M53.76 192H76.608L77.184 182.624L69.888 184.096L69.12 184.251L56.064 186.886L52.224 188.377L50.016 190.189" stroke="black"/>
<path d="M77.184 182.624L76.608 192H99.456L98.496 178.788L78.144 180.28L77.184 182.624Z" fill="url(#paint8_linear)" stroke="black"/>
<path d="M120.576 192L117.312 186.886L114.048 190.189H104.64L103.968 192H120.576Z" fill="url(#paint9_linear)" stroke="black"/>
<path d="M105.216 186.886L99.456 192H103.968L104.64 190.189H114.048L117.312 186.886L120.576 192H130.176V188.377L127.872 184.251L122.304 178.788L112.704 184.096L105.216 186.886Z" fill="url(#paint10_linear)" stroke="black"/>
<path d="M148.416 165.363L142.08 167.707L148.992 169.199L156.288 168.559L167.04 173.887L165.504 169.199L158.592 167.707L163.008 164.511L160.704 163.019L154.56 165.363H148.416Z" fill="url(#paint11_linear)"/>
<path d="M158.592 167.707L165.504 169.199H167.616L173.184 171.33L180.864 175.805L185.472 180.067L192 190.082V184.542L190.08 181.771L185.472 177.083L177.408 171.33L167.616 167.707H158.592Z" fill="url(#paint12_linear)"/>
<path d="M165.504 169.199L167.04 173.887L156.288 168.559L148.992 169.199L142.08 167.707L148.416 165.363H154.56L160.704 163.019L163.008 164.511L158.592 167.707M165.504 169.199L158.592 167.707M165.504 169.199H167.616L173.184 171.33L180.864 175.805L185.472 180.067L192 190.082V184.542L190.08 181.771L185.472 177.083L177.408 171.33L167.616 167.707H158.592" stroke="black"/>
<path d="M192 171.969L185.472 159.396L181.632 157.691L171.648 157.052L163.776 159.396L148.416 165.363H154.56L160.704 163.019L163.008 164.511L158.592 167.707H167.616L177.408 171.33L185.472 177.083L190.08 181.771L192 184.542V171.969Z" fill="url(#paint13_linear)" stroke="black"/>
<path d="M130.176 161.101L134.976 167.707L135.744 151.512L134.976 145.758L132.48 145.119L127.872 147.676L130.176 141.709L125.376 146.824V157.052H129.216L130.176 161.101Z" fill="url(#paint14_linear)" stroke="black"/>
<path d="M98.496 178.788L99.456 192L105.216 186.886L112.704 184.096L122.304 178.788L127.872 184.251L130.176 188.377V192H192V190.082L185.472 180.067L180.864 175.805L173.184 171.33L167.616 169.199H165.504L167.04 173.887L156.288 168.559L148.992 169.199L142.08 167.707L148.416 165.363L163.776 159.396L171.648 157.052L181.632 157.691L171.648 143.414L166.464 138.087L163.008 132.972L158.592 129.563L149.376 119.334V115.711L147.456 116.564V113.794L135.744 129.563L130.176 141.709L127.872 147.676L132.48 145.119L134.976 145.758L135.744 151.512L134.976 167.707L138.432 170.477H131.712L130.176 173.887L126.144 174.526L124.224 171.33L120.576 172.182L119.04 176.657L112.128 178.788L106.176 177.509L98.496 178.788Z" fill="url(#paint15_linear)" stroke="black"/>
<path d="M147.456 113.154L143.808 109.532L141.12 106.974L127.872 140.857L130.176 141.709L135.744 129.563L147.456 113.794V113.154Z" fill="url(#paint16_linear)" stroke="black"/>
<path d="M115.2 96.8105L116.736 82.8946L122.496 96.1065L120.768 96.3196L125.376 104.204L124.8 111.663L125.376 126.792L122.304 145.758L116.736 168.986L115.2 157.052L119.04 138.726L122.304 125.514L122.688 109.958L119.04 101.008L115.2 96.8105Z" fill="url(#paint17_linear)" stroke="black"/>
<path d="M89.472 133.825L87.87 135.103V140.644L85.632 147.463L83.52 153.003L89.088 148.315L91.008 140.005L91.776 131.481L89.472 133.825Z" fill="url(#paint18_linear)"/>
<path d="M115.392 110.667L111.36 109.532L107.136 109.319L105.6 112.089L104.256 116.777L103.488 119.121L103.535 120.826L103.68 126.153L103.872 128.497L115.392 110.667Z" fill="url(#paint19_linear)"/>
<path d="M99.648 125.727L98.688 125.94L97.92 136.382V143.201L96.576 150.233L95.616 161.101V170.477L101.568 155.347L102.72 140.218L103.104 133.185L103.68 126.153L103.488 119.121L102.72 119.973V120.826L101.184 123.17L100.8 124.022L99.648 125.727Z" fill="url(#paint20_linear)"/>
<path d="M103.488 119.121L103.68 126.153M103.488 119.121L102.72 119.973V120.826L101.184 123.17L100.8 124.022L99.648 125.727L98.688 125.94L97.92 136.382V143.201L96.576 150.233L95.616 161.101V170.477L101.568 155.347L102.72 140.218L103.104 133.185L103.68 126.153M103.488 119.121L104.256 116.777L105.6 112.089L107.136 109.319L111.36 109.532L115.392 110.667L103.872 128.497L103.68 126.153M103.488 119.121L103.535 120.826L103.68 126.153M89.472 133.825L87.87 135.103V140.644L85.632 147.463L83.52 153.003L89.088 148.315L91.008 140.005L91.776 131.481L89.472 133.825Z" stroke="black"/>
<path d="M77.184 182.624L78.144 180.28L98.496 178.788L106.176 177.509L112.128 178.788L119.04 176.657L120.576 172.182L124.224 171.33L124.8 165.363L125.376 157.052V146.824L130.176 141.709L127.872 140.857L141.12 106.974L127.872 97.8113L122.304 96.1065L120.576 96.2778L125.376 104.204L124.8 111.663L125.376 126.792L122.304 145.758L116.736 169.199L115.2 157.052L119.04 138.726L122.304 125.514L122.688 109.958L119.04 101.008L115.2 96.8105L111.552 97.172L115.584 110.384L103.968 128.497L103.68 125.87L103.104 133.185L102.72 140.218L101.568 155.347L95.616 170.477V161.101L96.576 150.233L97.92 143.201V136.382L98.304 131.161L98.688 125.94L96.768 126.153L91.9248 131.267L91.008 140.218L89.088 148.528L83.52 153.216L85.632 147.676L87.87 140.857V135.103L80.256 140.857L73.728 152.577L70.656 164.511L69.888 175.592V184.096L77.184 182.624Z" fill="url(#paint21_linear)"/>
<path d="M141.12 106.974L141.888 101.86L139.2 97.172L129.024 92.0577L126.144 91.2053L116.736 82.8946L122.304 96.1065L127.872 97.8113L141.12 106.974Z" fill="url(#paint22_linear)"/>
<path d="M111.552 82.8946V97.172L115.2 96.8105L116.736 82.8946H111.552Z" fill="url(#paint23_linear)"/>
<path d="M111.552 97.172V82.8946H116.736M111.552 97.172L115.2 96.8105M111.552 97.172L115.584 110.384L103.968 128.497L103.68 125.87L103.104 133.185L102.72 140.218L101.568 155.347L95.616 170.477V161.101L96.576 150.233L97.92 143.201V136.382L98.304 131.161L98.688 125.94L96.768 126.153L91.9248 131.267L91.008 140.218L89.088 148.528L83.52 153.216L85.632 147.676L87.87 140.857V135.103L80.256 140.857L73.728 152.577L70.656 164.511L69.888 175.592V184.096L77.184 182.624L78.144 180.28L98.496 178.788L106.176 177.509L112.128 178.788L119.04 176.657L120.576 172.182L124.224 171.33L124.8 165.363L125.376 157.052V146.824L130.176 141.709L127.872 140.857L141.12 106.974M141.12 106.974L141.888 101.86L139.2 97.172L129.024 92.0577L126.144 91.2053L116.736 82.8946M141.12 106.974L127.872 97.8113L122.304 96.1065M116.736 82.8946L115.2 96.8105M116.736 82.8946L122.304 96.1065M122.304 96.1065L120.576 96.2778L125.376 104.204L124.8 111.663L125.376 126.792L122.304 145.758L116.736 169.199L115.2 157.052L119.04 138.726L122.304 125.514L122.688 109.958L119.04 101.008L115.2 96.8105" stroke="black"/>
<path d="M79.872 135.103L86.016 127.432L83.328 126.199L78.528 128.284L72.576 127.858L66.048 124.448L57.6 119.973L60.096 123.17L62.4 124.875L65.856 127.325L69.312 129.776L76.608 131.481L79.872 135.103Z" fill="url(#paint24_linear)" stroke="black"/>
<path d="M69.504 119.334L61.44 114.859L55.296 105.696L49.728 93.5494L48.96 93.1232L49.536 99.1964L52.992 110.491L57.408 119.867L66.048 124.555L72.576 127.858L78.528 128.178L83.712 126.153L79.104 124.875L69.504 119.334Z" fill="url(#paint25_linear)" stroke="black"/>
<path d="M46.848 18.3263C48 17.0477 49.344 13.8513 56.832 9.37625C64.32 4.90122 69.12 4.90122 69.12 4.90122L73.152 0L86.976 4.04883C86.976 4.04883 95.04 10.0155 98.304 15.556C101.568 21.0966 103.488 31.1121 103.488 31.1121L100.8 30.0466L96.384 31.9645L92.16 30.4728L86.976 33.4562L76.416 35.374L70.656 38.5705L63.936 35.374L61.824 27.9156L54.528 26.8502L52.8 20.0311L45.312 26.8502L42.432 24.293C43.5868 22.5597 45.696 19.6049 46.848 18.3263Z" fill="black" stroke="black"/>
<path d="M55.296 105.483L49.536 93.3363C51.648 94.6149 52.416 93.3363 52.416 93.3363L51.264 86.5172L50.688 83.9601L50.304 79.6981L49.728 76.0755L49.152 74.1576L45.984 68.1909L48.576 70.535L51.456 78.6326L54.144 75.6493L52.608 68.404L54.144 56.6837H58.176L63.744 48.3729L61.44 40.7014L69.12 39.4229L70.656 38.5705L76.416 35.374L86.976 33.4562L92.16 30.4728L96.384 31.9645L100.8 30.0466L103.488 31.1121L107.712 43.6848L108.48 52.2087V55.6182L109.44 58.1754L108.864 59.667L109.44 63.2897V64.7814V67.9778L110.016 72.6659L110.976 78.8457L111.552 85.8779V96.5328L109.056 105.483L107.328 108.679L105.6 111.876L103.488 119.121L101.568 119.76L99.264 117.842H96L92.352 119.76L86.4 122.317L83.712 126.153L78.912 124.662L61.248 114.646L55.296 105.483Z" fill="url(#paint26_linear)"/>
<path d="M43.392 65.8468L48.576 70.535L51.456 78.6326L54.144 75.6493L52.608 68.404L54.144 56.6837H58.176L63.744 48.3729L61.44 40.7014L69.12 39.4229L70.656 38.5705L76.416 35.374L86.976 33.4562L92.16 30.4728L96.384 31.9645L100.8 30.0466L103.488 31.1121L107.712 43.6848L108.48 52.2087V55.6182L109.44 58.1754L108.864 59.667L109.44 63.2897V64.7814V67.9778L110.016 72.6659L110.976 78.8457L111.552 85.8779V96.5328L109.056 105.483L107.328 108.679L105.6 111.876L103.488 119.121L101.568 119.76L99.264 117.842H96L92.352 119.76L86.4 122.317L83.712 126.153L78.912 124.662L61.248 114.646L55.296 105.483L49.536 93.3363C51.648 94.6149 52.416 93.3363 52.416 93.3363L51.264 86.5172L50.688 83.9601L50.304 79.6981L49.728 76.0755L49.152 74.1576L45.984 68.1909" stroke="black"/>
<path d="M45.888 68.1909L49.152 74.1576L49.728 76.0755L50.304 79.6981L50.688 83.96L51.264 86.5172L52.416 93.3363C52.416 93.3363 51.648 94.6149 49.536 93.3363C47.424 92.0577 48.384 93.7625 46.656 90.1398C44.928 86.5172 45.888 86.5172 45.888 86.5172C45.888 86.5172 43.776 83.96 41.856 81.616C40.0727 79.4389 38.592 74.7969 38.592 74.7969C38.592 74.7969 36.864 74.1576 36.864 70.7481C36.864 67.3385 38.592 66.273 38.592 66.273L40.512 65.2076L43.776 66.273L45.888 68.1909Z" fill="url(#paint27_linear)"/>
<path d="M50.688 83.96L51.264 86.5172L52.416 93.3363C52.416 93.3363 51.648 94.6149 49.536 93.3363C47.424 92.0577 48.384 93.7625 46.656 90.1398C44.928 86.5172 45.888 86.5172 45.888 86.5172C45.888 86.5172 43.776 83.96 41.856 81.616C40.0727 79.4389 38.592 74.7969 38.592 74.7969C38.592 74.7969 36.864 74.1576 36.864 70.7481C36.864 67.3385 38.592 66.273 38.592 66.273L40.512 65.2076L43.776 66.273L45.888 68.1909L49.152 74.1576L49.728 76.0755M50.688 83.96L49.344 81.1898C49.344 81.1898 48.768 78.6326 49.728 76.0755M50.688 83.96L50.304 79.6981L49.728 76.0755" stroke="black"/>
<path d="M47.232 74.1576L45.312 71.6004L42.432 73.0921L41.664 74.5838V76.2886V78.6326L46.08 83.96V81.4029L44.352 78.4195L44.736 75.2231L47.232 74.1576Z" fill="url(#paint28_linear)"/>
<path d="M45.312 71.6004L42.624 69.2564L40.512 67.5516L38.976 67.3385L38.4 69.0433L40.512 69.8957V74.1576L41.664 78.6326V76.2886V74.5838L42.432 73.0921L45.312 71.6004Z" fill="url(#paint29_linear)"/>
<path d="M47.232 74.1576L49.536 76.2886C48.576 78.8457 49.344 81.1898 49.344 81.1898L47.616 80.9767L46.08 81.4029L44.352 78.4195L44.736 75.2231L47.232 74.1576Z" fill="url(#paint30_linear)"/>
<path d="M47.232 74.1576L49.536 76.2886C48.576 78.8457 49.344 81.1898 49.344 81.1898L47.616 80.9767L46.08 81.4029M47.232 74.1576L45.312 71.6004M47.232 74.1576L44.736 75.2231L44.352 78.4195L46.08 81.4029M45.312 71.6004L42.624 69.2564L40.512 67.5516L38.976 67.3385L38.4 69.0433L40.512 69.8957V74.1576L41.664 78.6326M45.312 71.6004L42.432 73.0921L41.664 74.5838V76.2886V78.6326M41.664 78.6326L46.08 83.96V81.4029" stroke="black"/>
<path d="M102.144 104.204L103.104 101.434L99.264 103.139L96 103.991L92.544 103.565L88.704 104.204L83.52 105.27L88.704 107.827H94.08H96.96L99.648 106.974L102.144 104.204Z" fill="url(#paint31_linear)"/>
<path d="M88.512 102.926L84.864 104.204L83.52 105.27L88.704 104.204L92.544 103.565L96 103.991L99.264 103.139L103.104 101.434L99.648 100.582L96.384 101.86H93.312L88.512 102.926Z" fill="url(#paint32_linear)"/>
<path d="M83.52 105.27L88.704 107.827H94.08H96.96L99.648 106.974L102.144 104.204L103.104 101.434M83.52 105.27L88.704 104.204L92.544 103.565L96 103.991L99.264 103.139L103.104 101.434M83.52 105.27L84.864 104.204L88.512 102.926L93.312 101.86H96.384L99.648 100.582L103.104 101.434" stroke="black"/>
<path d="M95.04 89.9267L96 90.566C96 90.566 96 90.9922 95.616 91.4184C95.232 91.8446 94.656 91.6315 94.656 91.6315L94.272 91.4184L93.312 90.9922C93.312 90.9922 92.352 91.2053 92.352 90.566V89.9267C92.352 89.9267 93.312 89.7136 93.888 89.7137C94.464 89.7137 94.7916 89.7933 95.04 89.9267Z" stroke="black"/>
<path d="M90.24 64.3552C90.24 64.3552 94.848 83.5339 94.272 84.1731L92.928 85.0255L90.816 84.1731H88.512C88.512 84.1731 86.784 84.3862 86.784 88.0089C86.784 91.6315 87.552 92.0577 88.512 92.0577L91.776 92.4839H95.616H97.728L101.184 89.9268C101.184 89.9268 102.528 88.6482 102.528 87.7958L102.144 86.091L100.224 81.8291L98.496 76.7148L97.152 70.535L96.96 66.0599" stroke="black"/>
<path d="M72.384 59.4539L65.664 65.2075L72.768 63.929L77.76 64.3552H85.824L87.936 66.273L90.24 64.3552L88.704 62.2242L80.448 60.3063L76.416 59.8801L72.384 59.4539Z" fill="url(#paint33_linear)" stroke="black"/>
<path d="M96.96 63.0766V66.06L99.648 63.5028L101.664 62.5439L103.68 61.5849L106.176 60.3063L108.864 59.8801L109.44 58.1754L108.48 55.6182V54.3396L106.176 55.192L103.68 57.1099L96.96 63.0766Z" fill="url(#paint34_linear)" stroke="black"/>
<path d="M95.232 109.532L99.072 109.105L98.112 112.941L95.232 109.532Z" fill="#1E1C1C"/>
<path d="M80.256 103.778C80.256 103.437 83.52 100.155 85.056 98.8768L87.936 98.0244L92.352 95.0411L98.304 94.4018L102.336 95.4673L105.6 97.3851L106.752 99.9423L105.216 101.86L101.568 99.5161L97.728 98.8768L93.312 99.9423L90.048 101.221L85.824 103.139L83.136 103.778H80.256Z" fill="#1E1C1C"/>
<path d="M86.4 122.317L83.712 126.153L86.976 127.432L93.312 126.579L96.384 126.153L99.648 125.727L100.8 124.022L101.184 122.957L102.72 120.613V119.973L103.488 119.121L101.568 119.76L99.264 117.842H96L94.176 118.801L92.352 119.76L86.4 122.317Z" fill="#1E1C1C"/>
<path d="M95.232 109.532L99.072 109.105L98.112 112.941L95.232 109.532Z" stroke="black"/>
<path d="M80.256 103.778C80.256 103.437 83.52 100.155 85.056 98.8768L87.936 98.0244L92.352 95.0411L98.304 94.4018L102.336 95.4673L105.6 97.3851L106.752 99.9423L105.216 101.86L101.568 99.5161L97.728 98.8768L93.312 99.9423L90.048 101.221L85.824 103.139L83.136 103.778H80.256Z" stroke="black"/>
<path d="M86.4 122.317L83.712 126.153L86.976 127.432L93.312 126.579L96.384 126.153L99.648 125.727L100.8 124.022L101.184 122.957L102.72 120.613V119.973L103.488 119.121L101.568 119.76L99.264 117.842H96L94.176 118.801L92.352 119.76L86.4 122.317Z" stroke="black"/>
<path d="M76.032 69.6826L71.616 71.6004L74.016 72.879L76.416 74.1576H78.336H80.256L82.56 72.879L84.48 70.535L82.56 68.6171H80.256L78.912 68.9561L76.032 69.6826Z" fill="url(#paint35_linear)" stroke="black"/>
<path d="M102.528 66.4861L99.648 69.2564L102.528 70.5349H105.408L107.52 68.6171V67.3385L107.904 66.0599L107.328 64.1421L105.408 64.9944L103.968 65.7403L102.528 66.4861Z" fill="url(#paint36_linear)" stroke="black"/>
<path d="M82.56 68.6171H80.256L78.912 68.9561C78.912 68.9561 78.144 69.8957 78.528 71.6004C78.804 72.8259 79.0941 72.8709 79.5106 72.9355C79.6735 72.9607 79.8557 72.989 80.064 73.0921C80.7522 73.4327 81.984 72.879 81.984 72.879C81.984 72.879 82.802 71.6004 82.752 70.3219C82.8016 69.6066 82.7627 69.7577 82.752 69.4695L82.56 68.6171Z" fill="#120F0F"/>
<path d="M107.328 64.1421L105.408 64.9944L103.968 65.7403C103.968 65.7403 103.488 66.273 104.256 67.7647C104.711 68.6482 104.829 68.9854 105.049 69.1271C105.201 69.2246 105.401 69.2296 105.792 69.2564C106.362 69.2954 107.136 68.6171 107.136 68.6171L107.52 67.3385L107.904 66.0599L107.328 64.1421Z" fill="#120F0F"/>
<path d="M82.56 68.6171H80.256L78.912 68.9561C78.912 68.9561 78.144 69.8957 78.528 71.6004C78.804 72.8259 79.0941 72.8709 79.5106 72.9355C79.6735 72.9607 79.8557 72.989 80.064 73.0921C80.7522 73.4327 81.984 72.879 81.984 72.879C81.984 72.879 82.802 71.6004 82.752 70.3219C82.8016 69.6066 82.7627 69.7577 82.752 69.4695M82.56 68.6171C82.56 68.6171 82.7213 68.6414 82.752 69.4695M82.56 68.6171L82.752 69.4695M105.408 64.9944L107.328 64.1421L107.904 66.0599L107.52 67.3385L107.136 68.6171C107.136 68.6171 106.362 69.2954 105.792 69.2564C105.401 69.2296 105.201 69.2246 105.049 69.1271C104.829 68.9854 104.711 68.6482 104.256 67.7647C103.488 66.273 103.968 65.7403 103.968 65.7403L105.408 64.9944Z" stroke="black"/>
<path d="M63.936 35.374L70.656 38.5705L69.12 39.4229L61.44 40.7015L51.456 45.3896L44.16 42.1931L39.936 46.8813C39.936 46.8813 38.016 37.0788 39.552 29.1942L42.432 24.293L45.312 26.8502L52.8 20.0311L54.528 26.8502L61.824 27.9157L63.936 35.374Z" fill="#26211D" stroke="black"/>
<path d="M39.936 46.8812L43.392 65.8468L48.576 70.535L51.456 78.6326L54.144 75.6493L52.608 68.404L54.144 56.6837H58.176L63.744 48.3729L61.44 40.7014L51.456 45.3896L44.16 42.1931L39.936 46.8812Z" fill="#3F3329" stroke="black"/>
<path d="M48 124.875L45.504 121.252L47.232 119.334L51.264 118.269L54.336 119.334L57.216 121.839L60.48 124.679L61.44 125.514L64.128 127.006L66.24 129.989L72 132.972L76.224 135.316L79.104 137.021L71.616 135.316L66.24 132.759L61.824 132.12L57.6 128.497L48 124.875Z" fill="url(#paint37_linear)" stroke="black"/>
<path d="M76.608 131.481L79.872 135.103L79.104 137.021L76.224 135.316L72 132.972L66.24 129.989L64.128 127.006L65.856 127.325L69.312 129.776L76.608 131.481Z" fill="#3F4E61" stroke="black"/>
<path d="M111.36 106.974L107.712 109.319L111.552 109.532L115.584 110.597L111.36 106.974Z" fill="#3F4E61" stroke="black"/>
<path d="M78.144 180.28L77.184 182.624L69.888 184.096V175.592L70.656 164.511L73.728 152.577L80.256 140.857L87.87 135.103V140.857L85.632 147.676L83.52 153.216L89.088 148.528L91.008 140.218L91.9248 131.267L96.768 126.153L98.688 125.94L98.304 131.161L97.92 136.382L96.768 137.873V141.922L95.04 144.266L94.464 148.528L91.584 154.069L88.704 160.675L87.36 166.642L85.248 168.986L84.288 173.034L81.984 180.067L78.144 180.28Z" fill="url(#paint38_linear)" stroke="black"/>
<path d="M111.552 97.3851L115.584 110.384L111.36 106.974L107.904 109.319H107.136L107.328 108.679L109.056 105.483L111.552 97.3851Z" fill="url(#paint39_linear)" stroke="black"/>
<path d="M74.1939 174.574C74.2451 174.533 74.3172 174.512 74.3172 174.437" stroke="black" stroke-linecap="round" stroke-linejoin="round"/>
<path d="M74.1446 173.534C74.1856 173.498 74.2236 173.449 74.2679 173.425" stroke="black" stroke-linecap="round" stroke-linejoin="round"/>
<path d="M75.4761 173.342C75.545 173.311 75.6105 173.268 75.6733 173.233" stroke="black" stroke-linecap="round" stroke-linejoin="round"/>
<path d="M75.3774 174.656C75.4103 174.629 75.4432 174.601 75.4761 174.574" stroke="black" stroke-linecap="round" stroke-linejoin="round"/>
<path d="M75.5007 174.492C75.4968 174.502 75.4268 174.671 75.4268 174.629" stroke="black" stroke-linecap="round" stroke-linejoin="round"/>
<path d="M60.288 124.661L57.216 121.891L56.448 122.957L59.52 125.727L60.288 124.661Z" fill="url(#paint40_linear)"/>
<path d="M76.992 173.887C76.992 172.821 76.416 171.756 75.072 171.756C73.728 171.756 72.768 172.608 72.768 173.887C72.768 175.165 73.728 176.231 75.072 176.231C76.416 176.231 76.992 174.952 76.992 173.887Z" fill="url(#paint41_linear)"/>
<path d="M60.288 124.661L57.216 121.891L56.448 122.957L59.52 125.727L60.288 124.661Z" stroke="black"/>
<path d="M76.992 173.887C76.992 172.821 76.416 171.756 75.072 171.756C73.728 171.756 72.768 172.608 72.768 173.887C72.768 175.165 73.728 176.231 75.072 176.231C76.416 176.231 76.992 174.952 76.992 173.887Z" stroke="black"/>
</g>
<defs>
<filter id="filter0_d" x="-15" y="-4" width="222" height="222" filterUnits="userSpaceOnUse" color-interpolation-filters="sRGB">
<feFlood flood-opacity="0" result="BackgroundImageFix"/>
<feColorMatrix in="SourceAlpha" type="matrix" values="0 0 0 0 0 0 0 0 0 0 0 0 0 0 0 0 0 0 127 0"/>
<feOffset dy="11"/>
<feGaussianBlur stdDeviation="7.5"/>
<feColorMatrix type="matrix" values="0 0 0 0 0 0 0 0 0 0 0 0 0 0 0 0 0 0 0.82 0"/>
<feBlend mode="normal" in2="BackgroundImageFix" result="effect1_dropShadow"/>
<feBlend mode="normal" in="SourceGraphic" in2="effect1_dropShadow" result="shape"/>
</filter>
<linearGradient id="paint0_linear" x1="7.008" y1="106.122" x2="7.008" y2="145.758" gradientUnits="userSpaceOnUse">
<stop stop-color="#647B99"/>
<stop offset="1" stop-color="#5B92C0"/>
</linearGradient>
<linearGradient id="paint1_linear" x1="15.552" y1="158.544" x2="15.552" y2="192" gradientUnits="userSpaceOnUse">
<stop stop-color="#364B66"/>
<stop offset="1" stop-color="#6791C7"/>
</linearGradient>
<linearGradient id="paint2_linear" x1="35.7877" y1="88.7451" x2="-31.3468" y2="132.605" gradientUnits="userSpaceOnUse">
<stop stop-color="#A0C4E3"/>
<stop offset="1" stop-color="#5B92C0"/>
</linearGradient>
<linearGradient id="paint3_linear" x1="7.296" y1="75.01" x2="8.09203" y2="148.027" gradientUnits="userSpaceOnUse">
<stop stop-color="#A0C4E3"/>
<stop offset="1" stop-color="#5B92C0"/>
</linearGradient>
<linearGradient id="paint4_linear" x1="1.20185" y1="71.4813" x2="58.0043" y2="85.2166" gradientUnits="userSpaceOnUse">
<stop stop-color="#607795"/>
<stop offset="1" stop-color="#335E95"/>
</linearGradient>
<linearGradient id="paint5_linear" x1="38.016" y1="113.794" x2="51.2139" y2="114.672" gradientUnits="userSpaceOnUse">
<stop stop-color="#A0C4E3"/>
<stop offset="1" stop-color="#5B92C0"/>
</linearGradient>
<linearGradient id="paint6_linear" x1="92.9279" y1="182.624" x2="87.2494" y2="166.015" gradientUnits="userSpaceOnUse">
<stop stop-color="#E2AB8C" stop-opacity="0.9"/>
<stop offset="1" stop-color="#F8C8A6"/>
</linearGradient>
<linearGradient id="paint7_linear" x1="92.9279" y1="182.624" x2="87.2494" y2="166.015" gradientUnits="userSpaceOnUse">
<stop stop-color="#E2AB8C" stop-opacity="0.9"/>
<stop offset="1" stop-color="#F8C8A6"/>
</linearGradient>
<linearGradient id="paint8_linear" x1="93.9199" y1="177.384" x2="86.1772" y2="194.67" gradientUnits="userSpaceOnUse">
<stop stop-color="#A0C4E3"/>
<stop offset="1" stop-color="#5B92C0"/>
</linearGradient>
<linearGradient id="paint9_linear" x1="105.118" y1="184.926" x2="122.988" y2="191.073" gradientUnits="userSpaceOnUse">
<stop stop-color="#394C65"/>
<stop offset="1" stop-color="#8CAED8"/>
</linearGradient>
<linearGradient id="paint10_linear" x1="100.283" y1="175.771" x2="129.133" y2="194.781" gradientUnits="userSpaceOnUse">
<stop stop-color="#607795"/>
<stop offset="1" stop-color="#335E95"/>
</linearGradient>
<linearGradient id="paint11_linear" x1="143.424" y1="156.839" x2="196.231" y2="184.442" gradientUnits="userSpaceOnUse">
<stop stop-color="#607795"/>
<stop offset="1" stop-color="#335E95"/>
</linearGradient>
<linearGradient id="paint12_linear" x1="143.424" y1="156.839" x2="196.231" y2="184.442" gradientUnits="userSpaceOnUse">
<stop stop-color="#607795"/>
<stop offset="1" stop-color="#335E95"/>
</linearGradient>
<linearGradient id="paint13_linear" x1="181.44" y1="154.131" x2="164.408" y2="188.993" gradientUnits="userSpaceOnUse">
<stop stop-color="#A0C4E3"/>
<stop offset="1" stop-color="#5B92C0"/>
</linearGradient>
<linearGradient id="paint14_linear" x1="125.655" y1="135.773" x2="139.443" y2="137.331" gradientUnits="userSpaceOnUse">
<stop stop-color="#607795"/>
<stop offset="1" stop-color="#335E95"/>
</linearGradient>
<linearGradient id="paint15_linear" x1="169.344" y1="105.483" x2="113.283" y2="192.016" gradientUnits="userSpaceOnUse">
<stop stop-color="#A0C4E3"/>
<stop offset="1" stop-color="#5B92C0"/>
</linearGradient>
<linearGradient id="paint16_linear" x1="142.711" y1="103.283" x2="116.749" y2="122.181" gradientUnits="userSpaceOnUse">
<stop stop-color="#A0C4E3"/>
<stop offset="1" stop-color="#5B92C0"/>
</linearGradient>
<linearGradient id="paint17_linear" x1="115.474" y1="63.236" x2="129.164" y2="63.6945" gradientUnits="userSpaceOnUse">
<stop stop-color="#607795"/>
<stop offset="1" stop-color="#335E95"/>
</linearGradient>
<linearGradient id="paint18_linear" x1="100.608" y1="160.675" x2="103.443" y2="121.29" gradientUnits="userSpaceOnUse">
<stop stop-color="#445F80"/>
<stop offset="1" stop-color="#91B7D9"/>
</linearGradient>
<linearGradient id="paint19_linear" x1="100.608" y1="160.675" x2="103.443" y2="121.29" gradientUnits="userSpaceOnUse">
<stop stop-color="#445F80"/>
<stop offset="1" stop-color="#91B7D9"/>
</linearGradient>
<linearGradient id="paint20_linear" x1="100.608" y1="160.675" x2="103.443" y2="121.29" gradientUnits="userSpaceOnUse">
<stop stop-color="#445F80"/>
<stop offset="1" stop-color="#91B7D9"/>
</linearGradient>
<linearGradient id="paint21_linear" x1="133.248" y1="71.3873" x2="86.9234" y2="188.297" gradientUnits="userSpaceOnUse">
<stop stop-color="#85B9F0"/>
<stop offset="1" stop-color="#3D5667"/>
</linearGradient>
<linearGradient id="paint22_linear" x1="133.248" y1="71.3873" x2="86.9234" y2="188.297" gradientUnits="userSpaceOnUse">
<stop stop-color="#85B9F0"/>
<stop offset="1" stop-color="#3D5667"/>
</linearGradient>
<linearGradient id="paint23_linear" x1="133.248" y1="71.3873" x2="86.9234" y2="188.297" gradientUnits="userSpaceOnUse">
<stop stop-color="#85B9F0"/>
<stop offset="1" stop-color="#3D5667"/>
</linearGradient>
<linearGradient id="paint24_linear" x1="75.84" y1="114.433" x2="78.4378" y2="143.797" gradientUnits="userSpaceOnUse">
<stop stop-color="#AD7857"/>
<stop offset="1" stop-color="#482814"/>
</linearGradient>
<linearGradient id="paint25_linear" x1="78.336" y1="98.4506" x2="50.5712" y2="142.632" gradientUnits="userSpaceOnUse">
<stop stop-color="#E18448"/>
<stop offset="0.506268" stop-color="#A66C49"/>
<stop offset="1" stop-color="#72503C"/>
</linearGradient>
<linearGradient id="paint26_linear" x1="62.208" y1="133.398" x2="152.283" y2="39.6712" gradientUnits="userSpaceOnUse">
<stop stop-color="#DBBCAA"/>
<stop offset="0.31226" stop-color="#EBB593"/>
<stop offset="1" stop-color="#FFBE8F"/>
</linearGradient>
<linearGradient id="paint27_linear" x1="52.608" y1="93.5494" x2="39.9483" y2="65.1583" gradientUnits="userSpaceOnUse">
<stop stop-color="#E9B08F" stop-opacity="0.9"/>
<stop offset="1" stop-color="#F8C8A6"/>
</linearGradient>
<linearGradient id="paint28_linear" x1="34.56" y1="65.8468" x2="58.0003" y2="81.4087" gradientUnits="userSpaceOnUse">
<stop stop-color="#DA9973"/>
<stop offset="0.551134" stop-color="#B78060"/>
<stop offset="1"/>
</linearGradient>
<linearGradient id="paint29_linear" x1="34.56" y1="65.8468" x2="58.0003" y2="81.4087" gradientUnits="userSpaceOnUse">
<stop stop-color="#DA9973"/>
<stop offset="0.551134" stop-color="#B78060"/>
<stop offset="1"/>
</linearGradient>
<linearGradient id="paint30_linear" x1="34.56" y1="65.8468" x2="58.0003" y2="81.4087" gradientUnits="userSpaceOnUse">
<stop stop-color="#DA9973"/>
<stop offset="0.551134" stop-color="#B78060"/>
<stop offset="1"/>
</linearGradient>
<linearGradient id="paint31_linear" x1="92.736" y1="101.221" x2="93.444" y2="107.813" gradientUnits="userSpaceOnUse">
<stop stop-color="#B75A4F"/>
<stop offset="0.406285" stop-color="#943940"/>
<stop offset="1" stop-color="#E27168" stop-opacity="0.63"/>
</linearGradient>
<linearGradient id="paint32_linear" x1="92.736" y1="101.221" x2="93.444" y2="107.813" gradientUnits="userSpaceOnUse">
<stop stop-color="#B75A4F"/>
<stop offset="0.406285" stop-color="#943940"/>
<stop offset="1" stop-color="#E27168" stop-opacity="0.63"/>
</linearGradient>
<linearGradient id="paint33_linear" x1="90.432" y1="64.3552" x2="58.9405" y2="65.0472" gradientUnits="userSpaceOnUse">
<stop/>
<stop offset="1" stop-color="#D2A07C"/>
</linearGradient>
<linearGradient id="paint34_linear" x1="109.538" y1="62.7636" x2="96.8597" y2="62.8155" gradientUnits="userSpaceOnUse">
<stop stop-color="#C2A48E"/>
<stop offset="1"/>
</linearGradient>
<linearGradient id="paint35_linear" x1="84.672" y1="69.2564" x2="71.3252" y2="67.0441" gradientUnits="userSpaceOnUse">
<stop stop-color="white"/>
<stop offset="1" stop-color="#E1E1E1" stop-opacity="0.82"/>
</linearGradient>
<linearGradient id="paint36_linear" x1="105.984" y1="64.1421" x2="96.865" y2="69.2544" gradientUnits="userSpaceOnUse">
<stop stop-color="white"/>
<stop offset="1" stop-color="#E0DFDF" stop-opacity="0.78"/>
</linearGradient>
<linearGradient id="paint37_linear" x1="46.4086" y1="113.987" x2="82.3873" y2="132.255" gradientUnits="userSpaceOnUse">
<stop stop-color="#607795"/>
<stop offset="1" stop-color="#335E95"/>
</linearGradient>
<linearGradient id="paint38_linear" x1="84.288" y1="125.94" x2="84.288" y2="184.096" gradientUnits="userSpaceOnUse">
<stop stop-color="#6B505F"/>
<stop offset="1" stop-color="#607699"/>
</linearGradient>
<linearGradient id="paint39_linear" x1="110.4" y1="95.0411" x2="104.333" y2="106.906" gradientUnits="userSpaceOnUse">
<stop stop-color="#D7E8F7"/>
<stop offset="1" stop-color="#5B92C0"/>
</linearGradient>
<linearGradient id="paint40_linear" x1="45.888" y1="113.154" x2="109.88" y2="180.712" gradientUnits="userSpaceOnUse">
<stop stop-color="white"/>
<stop offset="1" stop-color="#C4C4C4"/>
</linearGradient>
<linearGradient id="paint41_linear" x1="45.888" y1="113.154" x2="109.88" y2="180.712" gradientUnits="userSpaceOnUse">
<stop stop-color="white"/>
<stop offset="1" stop-color="#C4C4C4"/>
</linearGradient>
<clipPath id="clip0">
<rect width="192" height="192" fill="white"/>
</clipPath>
</defs>
</svg>
